<?xml version="1.0" encoding="UTF-8"?>
<!DOCTYPE svg PUBLIC "-//W3C//DTD SVG 1.1//EN" "http://www.w3.org/Graphics/SVG/1.1/DTD/svg11.dtd">
<!-- Creator: CorelDRAW 2018 (64 Bit) -->
<svg xmlns="http://www.w3.org/2000/svg" xml:space="preserve" width="114.3mm" height="110.067mm" version="1.1" style="shape-rendering:geometricPrecision; text-rendering:geometricPrecision; image-rendering:optimizeQuality; fill-rule:evenodd; clip-rule:evenodd"
viewBox="0 0 11430 11006.67"
 xmlns:xlink="http://www.w3.org/1999/xlink">
 <defs>
  <style type="text/css">
   <![CDATA[
    .str1 {stroke:#5CA47A;stroke-width:20;stroke-miterlimit:22.9256;stroke-opacity:0.501961}
    .str0 {stroke:#FEFEFE;stroke-width:7.62;stroke-miterlimit:22.9256}
    .fil0 {fill:none}
    .fil4 {fill:none;fill-rule:nonzero}
    .fil6 {fill:#373435}
    .fil8 {fill:#7CB14D}
    .fil3 {fill:#FEFEFE;fill-rule:nonzero}
    .fil1 {fill:#373435;fill-rule:nonzero}
    .fil7 {fill:#373435;fill-rule:nonzero}
    .fil5 {fill:#C7DB5C;fill-rule:nonzero}
    .fil9 {fill:#5CA47A;fill-opacity:0.501961}
    .fil2 {fill:url(#id8)}
   ]]>
  </style>
     <clipPath id="id0">
      <path d="M5639.17 956.89l964.36 0 0 4262.31 -964.36 0 0 -4262.31z"/>
     </clipPath>
    <mask id="id1">
  <linearGradient id="id2" gradientUnits="userSpaceOnUse" x1="6775.42" y1="2882.22" x2="6045.36" y2="2991.17">
   <stop offset="0" style="stop-opacity:1; stop-color:white"/>
   <stop offset="0.831373" style="stop-opacity:0.501961; stop-color:white"/>
   <stop offset="1" style="stop-opacity:0; stop-color:white"/>
  </linearGradient>
     <rect style="fill:url(#id2)" x="5746.5" y="1070.08" width="747.53" height="4041.1"/>
    </mask>
     <clipPath id="id3">
      <path d="M3376.39 397.13l3717.17 0 0 4478.64 -3717.17 0 0 -4478.64z"/>
     </clipPath>
     <clipPath id="id4">
      <path d="M4073.82 956.92l964.28 0 0 4262.25 -964.28 0 0 -4262.25z"/>
     </clipPath>
    <mask id="id5">
  <linearGradient id="id6" gradientUnits="userSpaceOnUse" x1="3901.91" y1="2882.22" x2="4631.97" y2="2991.17">
   <stop offset="0" style="stop-opacity:1; stop-color:white"/>
   <stop offset="0.831373" style="stop-opacity:0.501961; stop-color:white"/>
   <stop offset="1" style="stop-opacity:0; stop-color:white"/>
  </linearGradient>
     <rect style="fill:url(#id6)" x="4183.44" y="1070.22" width="747.25" height="4040.82"/>
    </mask>
    <clipPath id="id7">
     <path d="M1520.49 8103.4c-577.95,0 -1053.5,438.31 -1112.45,1000.64l290.07 0c57.3,-402.93 403.62,-712.78 822.38,-712.78 418.75,0 765.09,309.85 822.38,712.78l290.06 0c-58.95,-562.33 -534.5,-1000.64 -1112.44,-1000.64zm-1115.77 1198.32c40.88,580.59 524.78,1038.93 1115.77,1038.93 590.99,0 1074.89,-458.34 1115.77,-1038.93l-288.84 0c-40.11,421.41 -395.01,751.06 -826.93,751.06 -431.93,0 -786.81,-329.65 -826.93,-751.06l-288.84 0z"/>
    </clipPath>
  <linearGradient id="id8" gradientUnits="userSpaceOnUse" x1="7079.09" y1="5587.05" x2="4017.09" y2="165.52">
   <stop offset="0" style="stop-opacity:1; stop-color:#339852"/>
   <stop offset="0.211765" style="stop-opacity:1; stop-color:#73B24A"/>
   <stop offset="1" style="stop-opacity:1; stop-color:#B4CD42"/>
  </linearGradient>
 </defs>
 <g id="Capa_x0020_1">
  <metadata id="CorelCorpID_0Corel-Layer"/>
  <rect class="fil0" x="-0.01" width="11430" height="11006.67"/>
  <path class="fil1" d="M1255.56 6259.94c0,122.88 -115.26,184.34 -345.59,184.34 -6.91,0 -15.6,-0.19 -26.07,-0.37 -10.63,-0.18 -22.87,-0.36 -36.69,-0.72 -13.84,-0.36 -26.08,-0.74 -36.35,-0.91 -10.47,-0.18 -19.16,-0.18 -26.08,-0.18 -162.06,0 -259.58,-31.18 -292.38,-93.53 -11.53,-21.57 -17.2,-51.12 -17.2,-88.63l0 -423.23c0,-27.55 13.47,-41.32 40.43,-41.32 26.06,0 42.73,1.09 50,3.26 16.84,5.25 25.36,18.12 25.36,38.25l0 415.07c0,41.14 24.46,68.51 73.22,82.28 14.54,3.63 31.92,6.34 51.78,7.98 19.86,1.81 43.44,2.72 70.4,2.72l159.04 0c60.64,0 101.24,-3.45 122.18,-10.16 48.75,-13.05 73.22,-40.41 73.22,-82.28l0 -415.61c0,-20.49 8.16,-33.36 24.47,-38.25 6.57,-2.17 23.05,-3.26 49.83,-3.26 26.95,0 40.43,13.77 40.43,41.51l0 423.04zm867.59 112.74c0,49.12 -21.11,73.77 -63.48,73.77 -19.32,0 -41.32,-10.51 -65.96,-31.36l-538.85 -467.82 0 452.96c0,20.84 -8.34,34.08 -25,39.33 -4.79,0.72 -11.36,1.27 -19.69,1.81 -8.33,0.54 -18.26,0.73 -30.14,0.73 -26.96,0 -40.43,-13.96 -40.43,-41.87l0 -539.41c0,-46.76 19.68,-70.15 59.22,-70.15 25,0 50.53,11.24 76.96,33.89l531.59 462.57 0 -450.23c0,-20.49 8.32,-33.54 25,-38.8 4.78,-0.72 11.34,-1.44 19.67,-1.99 8.33,-0.55 18.27,-0.72 30.15,-0.72 27.3,0 40.96,13.77 40.96,41.51l0 535.78zm197.87 27.55c0,27.91 -13.47,41.87 -40.43,41.87 -11.87,0 -21.8,-0.19 -30.13,-0.73 -8.34,-0.54 -14.9,-1.09 -19.69,-1.81 -16.67,-5.25 -25,-18.49 -25,-39.33l0 -563.33c0,-20.85 8.16,-33.9 24.47,-38.8 3.72,-0.72 9.75,-1.44 18.09,-1.99 8.33,-0.55 18.96,-0.72 32.26,-0.72 26.96,0 40.43,13.77 40.43,41.32l0 563.52zm958.39 -572.04c0,8.88 -4.08,19.59 -12.06,31.9l-373.95 543.76c-18.27,26.29 -41.31,39.34 -69.15,39.34 -28.38,0 -51.43,-12.87 -68.98,-38.79l-375.02 -544.31c-7.98,-12.31 -12.06,-23.02 -12.06,-31.9 0,-23.01 18.97,-34.43 56.75,-34.43 28.72,0 47.52,6.34 56.56,19.02l342.75 500.26 341.32 -500.26c8.69,-12.68 27.66,-19.02 56.74,-19.02 37.95,0 57.1,11.42 57.1,34.43zm741.87 290.55c0,34.25 -14.36,51.48 -43.08,51.48l-555.35 0 0 106.21c0,45.68 49.3,68.52 148.06,68.52l407.29 0c26.95,0 40.43,13.96 40.43,41.87 0,36.79 -13.48,55.28 -40.43,55.28l-412.43 0c-60.29,0 -115.61,-11.06 -165.79,-32.98 -61.7,-28.65 -92.56,-71.42 -92.56,-128.52l0 -320.63c0,-30.82 10.29,-58.74 30.68,-83.93 44.33,-53.82 123.58,-80.65 237.42,-80.65l112.77 0c26.6,0 40.07,18.13 40.07,54.19 0,27.92 -13.47,41.87 -40.07,41.87l-16.67 0 -10.28 0 -5.85 0c-3.73,0 -5.86,-0.18 -6.21,-0.54 -8.69,-0.36 -16.13,-0.55 -22.34,-0.72 -6.21,-0.19 -11.34,-0.38 -15.6,-0.38 -126.43,0 -189.55,23.39 -189.55,70.16l0 113.1 556.94 0c28.37,0 42.55,15.22 42.55,45.67zm836.03 -81.74c0,58.36 -30.14,101.14 -90.42,127.96 -47.71,19.76 -102.85,29.73 -165.08,29.73l-190.09 0 385.48 167.3c20.4,9.24 30.68,22.84 30.68,40.78 0,26.63 -22.7,39.87 -68.09,39.87 -18.08,0 -32.27,-1.45 -42.55,-4.17l-526.27 -230.01 0 191.77c0,27.91 -13.48,41.87 -40.42,41.87 -28.74,0 -45.4,-1.27 -49.83,-3.63 -16.67,-5.26 -25.01,-18.12 -25.01,-38.24l0 -563.33c0,-27.74 13.49,-41.51 40.43,-41.51l464.39 0c71.99,0 131.21,9.61 177.67,28.63 66.13,27.37 99.11,72.33 99.11,134.86l0 78.12zm-115.25 1.08l0 -81.74c0,-43.32 -54.08,-64.89 -162.06,-64.89l-389.03 0 0 207.18 409.78 0c94.14,0 141.31,-20.12 141.31,-60.55zm887.28 243.79c0,34.62 -5.32,61.62 -16.14,81.21 -28.73,52.74 -115.61,79.02 -260.82,79.02l-399.32 0c-26.77,0 -40.07,-13.96 -40.07,-41.87 0,-19.21 2.13,-32.45 6.21,-39.88 5.85,-10.32 17.2,-15.4 33.86,-15.4l399.49 0c107.63,0 161.53,-20.3 161.53,-61.09l0 -55.64c0,-39.69 -52.13,-61.26 -156.39,-64.89l-191.67 -6.35c-9.05,-0.36 -21.81,-0.9 -38.31,-1.8 -16.3,-0.91 -36.52,-2.19 -60.46,-3.99 -41.49,-4.9 -77.31,-18.86 -107.09,-41.87 -32.45,-25.56 -48.77,-59.09 -48.77,-100.42l0 -48.93c0,-75.4 40.79,-125.07 122.53,-149.18 39.18,-10.33 110.82,-15.4 215.09,-15.4 26.94,0 40.42,18.13 40.42,54.19 0,20.85 -7.98,33.9 -24.29,39.15 -2.48,1.46 -18.98,2.18 -49.47,2.18 -126.08,0 -189.02,22.66 -189.02,67.97l0 45.31c0,27.92 23.58,46.22 70.75,54.74 8.86,1.64 21.99,3.08 39.19,3.98 17.02,0.91 38.12,1.27 63.12,1.27l154.26 0c73.77,0 131.92,9.8 174.66,29.18 67.19,28.28 100.71,71.78 100.71,130.51l0 58zm176.6 118.36c0,27.91 -13.48,41.87 -40.43,41.87 -11.87,0 -21.8,-0.19 -30.13,-0.73 -8.34,-0.54 -14.9,-1.09 -19.69,-1.81 -16.67,-5.25 -25,-18.49 -25,-39.33l0 -563.33c0,-20.85 8.16,-33.9 24.47,-38.8 3.72,-0.72 9.75,-1.44 18.08,-1.99 8.33,-0.55 18.97,-0.72 32.27,-0.72 26.95,0 40.43,13.77 40.43,41.32l0 563.52zm869.02 -132.87c0,60.92 -29.96,107.12 -89.9,138.67 -46.45,24.11 -103.03,36.07 -169.87,36.07l-488.14 0c-27.13,0 -40.6,-13.96 -40.6,-41.87l0 -563.52c0,-27.55 13.47,-41.32 40.6,-41.32l490.8 0c171.47,0 257.11,54.92 257.11,164.58l0 307.39zm-114.37 -0.54l0 -306.31c0,-25.19 -18.62,-43.86 -56.03,-56.37 -26.78,-8.52 -56.74,-12.69 -89.9,-12.69l-412.96 0 0 453.5 410.84 0c35.63,0 66.49,-4.72 92.55,-14.33 37.06,-13.41 55.5,-34.8 55.5,-63.8zm1018.83 131.42c0,16.12 -5.32,29.9 -16.13,40.78 -10.63,11.05 -23.93,16.49 -39.9,16.49 -22.16,0 -40.25,-10.69 -54.08,-31.9l-102.31 -151.89 -486.19 0 -102.3 151.89c-11.18,16.67 -23.06,25.01 -35.83,25.01 -12.94,0 -25.17,-4.17 -36.88,-12.68 -13.3,-9.24 -19.86,-20.12 -19.86,-32.46 0,-3.98 1.07,-7.42 3.2,-10.68l364.56 -569.86c14.88,-23.38 40.6,-34.99 76.95,-34.99 26.95,0 45.03,7.8 54.08,23.39 0.71,1.08 1.42,2.54 2.3,4.53 0.89,1.99 2.13,4.35 3.91,7.07l386.54 559.34c1.23,2.36 1.94,7.79 1.94,15.96zm-279.97 -224.21l-175.01 -263.91 -176.07 263.91 351.08 0zm1121.51 93.33c0,60.92 -29.97,107.12 -89.91,138.67 -46.45,24.11 -103.02,36.07 -169.87,36.07l-488.13 0c-27.14,0 -40.61,-13.96 -40.61,-41.87l0 -563.52c0,-27.55 13.47,-41.32 40.61,-41.32l490.8 0c171.46,0 257.11,54.92 257.11,164.58l0 307.39zm-114.38 -0.54l0 -306.31c0,-25.19 -18.61,-43.86 -56.02,-56.37 -26.78,-8.52 -56.75,-12.69 -89.91,-12.69l-412.96 0 0 453.5 410.85 0c35.63,0 66.48,-4.72 92.55,-14.33 37.06,-13.41 55.49,-34.8 55.49,-63.8zm1284.28 0.54c0,60.92 -29.97,107.12 -89.9,138.67 -46.45,24.11 -103.02,36.07 -169.87,36.07l-488.14 0c-27.13,0 -40.6,-13.96 -40.6,-41.87l0 -563.52c0,-27.55 13.47,-41.32 40.6,-41.32l490.8 0c171.47,0 257.11,54.92 257.11,164.58l0 307.39zm-114.37 -0.54l0 -306.31c0,-25.19 -18.62,-43.86 -56.03,-56.37 -26.77,-8.52 -56.74,-12.69 -89.9,-12.69l-412.97 0 0 453.5 410.85 0c35.63,0 66.48,-4.72 92.55,-14.33 37.06,-13.41 55.5,-34.8 55.5,-63.8zm890.11 -148.08c0,34.25 -14.36,51.48 -43.08,51.48l-555.35 0 0 106.21c0,45.68 49.29,68.52 148.06,68.52l407.29 0c26.94,0 40.42,13.96 40.42,41.87 0,36.79 -13.48,55.28 -40.42,55.28l-412.44 0c-60.28,0 -115.6,-11.06 -165.78,-32.98 -61.71,-28.65 -92.56,-71.42 -92.56,-128.52l0 -320.63c0,-30.82 10.29,-58.74 30.67,-83.93 44.33,-53.82 123.58,-80.65 237.43,-80.65l112.76 0c26.6,0 40.08,18.13 40.08,54.19 0,27.92 -13.48,41.87 -40.08,41.87l-16.66 0 -10.29 0 -5.85 0c-3.72,0 -5.85,-0.18 -6.21,-0.54 -8.69,-0.36 -16.13,-0.55 -22.34,-0.72 -6.2,-0.19 -11.34,-0.38 -15.6,-0.38 -126.42,0 -189.55,23.39 -189.55,70.16l0 113.1 556.95 0c28.37,0 42.55,15.22 42.55,45.67zm-8392.28 1534.5c0,28.67 -11.72,46.96 -35.15,54.33 -9.72,2.79 -32.9,4.31 -70.05,4.31 -37.89,0 -56.84,-19.54 -56.84,-58.64l0 -586.17 -478.38 601.15c-25.43,31.73 -59.84,47.47 -102.96,47.47 -43.87,0 -78.53,-15.74 -103.96,-47.47l-487.11 -603.95 0 588.97c0,39.09 -18.95,58.64 -56.84,58.64 -37.64,0 -60.83,-1.52 -70.05,-4.31 -23.43,-7.37 -35.15,-25.64 -35.15,-54.33l0 -760.07c0,-56.11 30.16,-84.04 90.49,-84.04 39.39,0 71.05,14.48 94.99,43.17l569.62 686.45 556.67 -687.22c23.43,-28.68 54.09,-43.16 91.98,-43.16 61.83,0 92.74,30.48 92.74,91.4l0 753.47zm3160.34 -766.17c0,-45.44 19.7,-68.29 59.33,-68.29l583.01 0c65.58,0 77.4,32.41 77.34,67.02 -0.03,17.99 -5.31,30.84 -17.2,44.86 -4.66,6.09 -10.31,11.94 -17.01,17.6l-6.95 5.99c-9.42,8.35 -20.64,17.79 -33.82,29.1l-0.46 0.4 -2.59 2.23 -685.11 589.83 704.01 0c39.63,0 59.33,22.6 59.33,67.78 0,45.44 -19.71,68.29 -59.33,68.29l-812.69 0c-35.15,0 -64.57,-6.6 -88.5,-20.05 -30.16,-16.51 -45.12,-40.62 -45.12,-72.86 0,-20.82 8.47,-38.59 25.43,-53.57l80.36 -69.51c4.63,-6.03 10.27,-11.9 16.86,-17.56l607.32 -522.37 1.28 -1.11 -386.16 0c-39.58,0 -59.33,-22.59 -59.33,-67.78zm-1827.63 763.37c0,22.6 -7.48,41.9 -22.68,57.13 -14.97,15.49 -33.66,23.1 -56.1,23.1 -31.16,0 -56.58,-14.98 -76.02,-44.68l-143.85 -212.74 -683.55 0 -143.84 212.74c-15.71,23.35 -32.41,35.03 -50.36,35.03 -18.2,0 -35.4,-5.84 -51.85,-17.77 -18.69,-12.95 -27.92,-28.18 -27.92,-45.44 0,-5.58 1.49,-10.41 4.48,-14.98l512.55 -798.15c20.94,-32.75 57.08,-49 108.19,-49 37.89,0 63.32,10.91 76.03,32.75 0.99,1.53 2,3.55 3.24,6.34 1.25,2.79 3,6.1 5.48,9.91l543.46 783.42c1.74,3.31 2.74,10.92 2.74,22.34zm-393.63 -314.02l-246.04 -369.63 -247.56 369.63 493.6 0zm1574.02 278.23c0,68.78 -29.66,103.33 -89.24,103.33 -27.18,0 -58.09,-14.73 -92.74,-43.93l-757.6 -655.22 0 634.41c0,29.18 -11.7,47.72 -35.15,55.09 -6.72,1.01 -15.94,1.78 -27.66,2.54 -11.72,0.76 -25.69,1.01 -42.39,1.01 -37.88,0 -56.83,-19.54 -56.83,-58.64l0 -755.5c0,-65.5 27.67,-98.25 83.26,-98.25 35.15,0 71.05,15.74 108.2,47.47l747.37 647.87 0 -630.61c0,-28.68 11.71,-46.96 35.15,-54.32 6.73,-1.01 15.95,-2.05 27.67,-2.8 11.71,-0.75 25.68,-1.01 42.38,-1.01 38.39,0 57.58,19.3 57.58,58.13l0 750.43zm278.21 38.59c0,39.08 -18.95,58.64 -56.83,58.64 -16.7,0 -30.68,-0.25 -42.39,-1.01 -11.71,-0.75 -20.94,-1.53 -27.66,-2.54 -23.45,-7.37 -35.16,-25.9 -35.16,-55.09l0 -789.02c0,-29.19 11.47,-47.47 34.41,-54.32 5.23,-1.01 13.71,-2.05 25.43,-2.8 11.69,-0.75 26.67,-1.01 45.37,-1.01 37.88,0 56.83,19.3 56.83,57.88l0 789.27zm2388.71 -2.8c0,22.6 -7.48,41.9 -22.68,57.13 -14.97,15.49 -33.66,23.1 -56.1,23.1 -31.16,0 -56.58,-14.98 -76.02,-44.68l-143.85 -212.74 -683.55 0 -143.84 212.74c-15.72,23.35 -32.41,35.03 -50.36,35.03 -18.2,0 -35.41,-5.84 -51.86,-17.77 -18.69,-12.95 -27.91,-28.18 -27.91,-45.44 0,-5.58 1.49,-10.41 4.48,-14.98l512.54 -798.15c20.95,-32.75 57.09,-49 108.2,-49 37.89,0 63.32,10.91 76.03,32.75 0.99,1.53 2,3.55 3.24,6.34 1.25,2.79 3,6.1 5.48,9.91l543.46 783.42c1.74,3.31 2.74,10.92 2.74,22.34zm-393.63 -314.02l-246.04 -369.63 -247.56 369.63 493.6 0zm1453.12 316.82c0,39.1 -18.96,58.64 -56.85,58.64l-520.01 0c-118.9,0 -211.65,-10.92 -278.21,-32.75 -102.71,-36.04 -154.06,-104.84 -154.06,-205.88l0 -609.28c0,-38.59 18.94,-57.88 56.83,-57.88 36.65,0 59.83,1.53 70.06,4.57 23.43,6.85 35.14,24.89 35.14,53.56l0 609.03c0,46.95 37.41,77.94 112.44,92.91 23.93,6.35 79.52,9.65 166.53,9.65l511.28 0c37.9,0 56.85,25.9 56.85,77.43zm1086.4 -394.25c0,47.98 -20.21,72.1 -60.58,72.1l-780.77 0 0 148.76c0,63.96 69.3,95.96 208.15,95.96l572.62 0c37.89,0 56.84,19.55 56.84,58.64 0,51.54 -18.96,77.43 -56.84,77.43l-579.84 0c-84.75,0 -162.54,-15.48 -233.09,-46.2 -86.76,-40.11 -130.13,-100.02 -130.13,-179.99l0 -449.09c0,-43.16 14.45,-82.25 43.12,-117.54 62.32,-75.4 173.76,-112.97 333.8,-112.97l158.55 0c37.4,0 56.34,25.38 56.34,75.9 0,39.1 -18.95,58.65 -56.34,58.65l-23.43 0 -14.46 0 -8.23 0c-5.22,0 -8.22,-0.26 -8.72,-0.76 -12.22,-0.51 -22.69,-0.77 -31.41,-1.02 -8.72,-0.25 -15.95,-0.51 -21.94,-0.51 -177.74,0 -266.49,32.76 -266.49,98.25l0 158.41 783.02 0c39.88,0 59.83,21.32 59.83,63.98zm1068.96 228.47c0,48.47 -7.49,86.32 -22.69,113.73 -40.39,73.88 -162.55,110.69 -366.71,110.69l-561.4 0c-37.63,0 -56.34,-19.54 -56.34,-58.64 0,-26.91 3,-45.44 8.72,-55.85 8.23,-14.47 24.19,-21.58 47.62,-21.58l561.65 0c151.32,0 227.1,-28.43 227.1,-85.55l0 -77.94c0,-55.59 -73.28,-85.81 -219.87,-90.88l-269.48 -8.89c-12.72,-0.5 -30.67,-1.27 -53.85,-2.54 -22.93,-1.25 -51.36,-3.04 -85,-5.58 -58.34,-6.86 -108.7,-26.4 -150.58,-58.65 -45.62,-35.79 -68.55,-82.75 -68.55,-140.64l0 -68.54c0,-105.61 57.34,-175.17 172.25,-208.93 55.1,-14.47 155.82,-21.58 302.4,-21.58 37.89,0 56.83,25.38 56.83,75.9 0,29.2 -11.21,47.48 -34.15,54.84 -3.49,2.03 -26.67,3.05 -69.55,3.05 -177.25,0 -265.75,31.74 -265.75,95.2l0 63.47c0,39.08 33.16,64.73 99.48,76.66 12.46,2.28 30.91,4.32 55.09,5.59 23.93,1.27 53.59,1.77 88.74,1.77l216.89 0c103.71,0 185.47,13.71 245.55,40.87 94.48,39.6 141.6,100.55 141.6,182.78l0 81.24z"/>
  <g id="_2166456683504">
   <polygon class="fil2" points="3557.59,436.62 3557.57,5207.95 7030.59,5315.96 7538.62,876.54 "/>
   <g>
    <g style="clip-path:url(#id0)">
     <image x="5639.17" y="956.89" width="964.36" height="4262.31" xlink:href="Logo UManizales color_Images\Logo UManizales color_ImgID1.png"/>
    </g>
   </g>
   <g>
    <path class="fil3" d="M5905.59 1151.92l-145.88 -50.97 8.84 -26.46 145.88 50.97 9.11 11.21 -17.95 15.25zm8.84 -26.46l7.9 2.76 1.21 8.45 -9.11 -11.21zm548.42 3970.1l-566.37 -3954.85 27.06 -4.04 566.37 3954.85 -13.88 15.99 -13.18 -11.95zm27.06 -4.04l2.35 16.41 -16.23 -0.42 13.88 -15.99zm-725.43 -30.46l712.25 18.51 -0.7 27.94 -712.25 -18.51 -13.32 -13.97 14.02 -13.97zm-0.7 27.94l-13.32 -0.35 0 -13.62 13.32 13.97zm14.02 -4001.28l0 3987.31 -27.34 0 0 -3987.31 18.09 -13.23 9.25 13.23zm-27.34 0l0 -19.55 18.09 6.32 -18.09 13.23z"/>
    <polygon id="1" class="fil1" points="5764.13,1087.72 5910.01,1138.69 6476.38,5093.54 5764.13,5075.03 "/>
   </g>
   <polygon class="fil3" style="mask:url(#id1)" points="5764.14,1087.72 5910.01,1138.69 6476.39,5093.54 5764.14,5075.03 "/>
   <g id="_2166456686160">
    <g style="clip-path:url(#id3)">
     <image x="3376.39" y="397.13" width="3717.17" height="4478.64" xlink:href="Logo UManizales color_Images\Logo UManizales color_ImgID2.png"/>
    </g>
   </g>
   <g>
    <path class="fil4 str0" d="M3808.23 2485.04c0,0 2041.48,4279.96 2853.46,-1655.99 0,0 -565.88,6882.38 -2853.46,1655.99z"/>
    <path id="1" class="fil5" d="M3808.23 2485.04c0,0 2041.48,4279.96 2853.46,-1655.99 0,0 -565.88,6882.38 -2853.46,1655.99z"/>
   </g>
   <g>
    <g style="clip-path:url(#id4)">
     <image x="4073.82" y="956.92" width="964.28" height="4262.25" xlink:href="Logo UManizales color_Images\Logo UManizales color_ImgID3.png"/>
    </g>
   </g>
   <g>
    <path class="fil3" d="M4762.91 1125.46l145.86 -50.97 8.84 26.46 -145.86 50.97 -17.95 -15.25 9.11 -11.21zm-9.11 11.21l1.21 -8.45 7.9 -2.76 -9.11 11.21zm-566.39 3954.85l566.39 -3954.85 27.06 4.04 -566.39 3954.85 -13.18 11.95 -13.88 -15.99zm13.88 15.99l-16.23 0.42 2.35 -16.41 13.88 15.99zm712.25 -18.51l-712.25 18.51 -0.7 -27.94 712.25 -18.51 14.02 13.97 -13.32 13.97zm13.32 -13.97l0 13.62 -13.32 0.35 13.32 -13.97zm0 -3987.31l0 3987.31 -27.34 0 0 -3987.31 9.25 -13.23 18.09 13.23zm-18.09 -13.23l18.09 -6.32 0 19.55 -18.09 -13.23z"/>
    <polygon id="1" class="fil1" points="4913.19,1087.72 4767.33,1138.69 4200.94,5093.54 4913.19,5075.03 "/>
   </g>
   <polygon class="fil3" style="mask:url(#id5)" points="4913.19,1087.72 4767.33,1138.69 4200.94,5093.54 4913.19,5075.03 "/>
  </g>
  <path class="fil6" d="M10483.83 7387.77c0,41.21 2.51,59.9 15.03,97.39 2.56,7.66 6.26,15.59 9.55,22.96 12.63,28.31 31.84,54.21 52.49,74.85 25.74,25.75 61.21,49.61 97.15,61.83 37.32,12.68 57.3,15.25 98.05,15.25 79,0 162.49,-46.65 206.58,-111.37 2.31,-3.39 4.24,-5.64 6.49,-9.33l14.31 -25.21c1.06,-2.54 1.62,-3.82 2.74,-6.04 12.14,-23.99 24.59,-66.68 24.59,-102.76 0,-49.55 -5.58,-77.72 -24.58,-120.33 -31.41,-70.46 -98.86,-125.29 -173.91,-144.04 -18.12,-4.53 -35.8,-7.13 -53.27,-7.91l-22.47 0c-25.96,1.16 -51.66,6.29 -77.86,15.04 -7.66,2.56 -15.57,6.26 -22.96,9.54 -45.4,20.26 -92.84,62.98 -116.22,105.99 -20.73,38.13 -35.71,79.03 -35.71,124.14zm262.53 -214.41c-122.41,0 -221.65,99.23 -221.65,221.65 0,122.41 99.24,221.65 221.65,221.65 122.42,0 221.65,-99.24 221.65,-221.65 0,-122.42 -99.23,-221.65 -221.65,-221.65z"/>
  <path class="fil6" d="M10632.37 7541.94l45.22 0.07c1.1,-8.27 0.36,-103.7 0.34,-120.22 23.85,0 48.11,-2.27 64.86,10.92 10.6,8.35 19,20.97 27.47,33.11 9.73,13.95 23.58,39.77 33.02,56.59 3.31,5.88 7.4,14.31 11.17,19.56l55.3 0.02c-1.53,-4.04 -40.38,-65.06 -43.13,-69.29 -8.46,-12.94 -26.43,-37.85 -38.37,-46.81 -4.45,-3.35 -12.34,-7.75 -17.64,-10.41 30.96,-5.11 53.57,-13.12 70.39,-42.92 7.17,-12.69 10.95,-29.79 8.75,-46.77 -3.67,-28.42 -25.12,-52.96 -52.64,-60.71 -26.52,-7.47 -78.2,-6.18 -107.76,-6.18 -18.59,-0.01 -38.6,-0.91 -56.98,-0.13l0 283.17zm45.52 -158.85c24.51,-0.56 58.18,1.64 81.34,-1.89 23.07,-3.52 41.41,-13.16 42.6,-39.94 1.13,-25.43 -17.23,-38.9 -40.28,-42.31 -13.22,-1.95 -66.9,-1.7 -83.66,-1.7l0 85.84z"/>
  <g>
   <path class="fil7" d="M3262.44 8658.94l-218.24 0 -50.13 138.73 -42.44 0 182.81 -497.35 38.58 0 181.29 497.35 -42.31 0 -49.56 -138.73zm-205.18 -36.5l191.9 0 -94.32 -263.71 -1.99 0 -95.59 263.71zm499.68 147.95c26.22,0 49.31,-7.81 69.48,-23.31 20.17,-15.39 30.31,-36.96 30.31,-64.48l36.5 0 0.69 1.98c0.93,34.16 -12.59,62.73 -40.34,85.81 -27.75,22.96 -59.92,34.39 -96.64,34.51 -49.21,-0.12 -87.45,-17.37 -114.96,-52 -27.4,-34.63 -41.15,-78.93 -41.15,-132.79l0 -14.46c0,-53.63 13.64,-97.81 41.04,-132.44 27.28,-34.62 65.52,-51.99 114.71,-51.99 39.64,0 72.64,12.01 99.1,35.91 26.35,23.9 39.17,55.37 38.24,94.32l-0.69 1.97 -36.5 0c0,-29.6 -9.67,-53.16 -29.03,-70.88 -19.47,-17.6 -43.13,-26.46 -71.12,-26.46 -38.7,0 -67.49,14.22 -86.38,42.67 -18.89,28.56 -28.33,64.12 -28.33,106.9l0 14.46c0,43.49 9.44,79.4 28.33,107.72 18.89,28.33 47.8,42.56 86.74,42.56zm393.48 -307.08l-29.04 -2.1c-25.76,0 -46.86,7.22 -63.3,21.68 -16.56,14.45 -28.34,34.39 -35.32,59.57l0 255.21 -41.05 0 0 -369.58 35.91 0 5.14 61.45 0 4.19c10.6,-22.85 24.94,-40.57 43.01,-53.39 17.96,-12.71 39.41,-19.12 64.12,-19.12 5.02,0 9.8,0.46 14.34,1.28 4.66,0.81 8.39,1.63 11.31,2.57l-5.12 38.24zm203.9 341.59c-47.8,-0.12 -86.62,-17.02 -116.47,-50.84 -29.84,-33.8 -44.76,-77.17 -44.76,-130.22l0 -18.76c0,-53.29 15.15,-97.24 45.23,-131.87 30.2,-34.62 67.62,-51.99 112.27,-51.99 44.88,0 79.51,14.46 104,43.25 24.47,28.8 36.72,67.62 36.72,116.35l0 31.71 -257.19 0 0 11.31c0,42.09 10.61,77.07 31.95,104.81 21.22,27.75 50.71,41.74 88.25,41.74 22.51,0 43.25,-3.73 62.14,-11.19 18.89,-7.34 34.63,-17.38 47.1,-29.85l17.49 27.98c-12.94,13.65 -29.96,25.07 -51.07,34.05 -21.09,8.97 -46.28,13.4 -75.66,13.52zm-3.73 -348.82c-31.48,0 -57.24,11.3 -77.53,33.81 -20.28,22.61 -32.17,51.18 -35.56,85.8l1.05 1.99 211.72 0 0 -8.51c0,-32.77 -8.51,-59.82 -25.76,-81.14 -17.14,-21.23 -41.85,-31.95 -73.92,-31.95zm207.29 159.84c0,-58.88 12.47,-106.1 37.42,-141.54 24.95,-35.44 59.7,-53.16 104.35,-53.16 25.3,0 47.45,5.36 66.45,16.09 19,10.72 34.74,25.88 47.34,45.46l0 -217.89 40.92 0 0 532.79 -33.46 0 -5.83 -53.63c-12.48,19.58 -28.45,34.63 -47.8,45.12 -19.35,10.49 -42.09,15.62 -68.32,15.74 -44.19,-0.12 -78.7,-16.56 -103.65,-49.43 -24.95,-32.88 -37.42,-76.95 -37.42,-132.33l0 -7.22zm41.04 7.22c0,44.65 8.86,80.1 26.82,106.56 17.84,26.46 44.76,39.64 80.78,39.64 26.35,0 48.39,-5.83 65.87,-17.6 17.49,-11.78 31.26,-27.99 41.05,-48.73l0 -175.23c-9.33,-20.88 -22.62,-38.01 -39.64,-51.18 -17.14,-13.18 -39.29,-19.83 -66.69,-19.83 -35.91,0 -62.96,14.81 -81.03,44.31 -18.18,29.38 -27.16,67.73 -27.16,114.84l0 7.22zm410.15 174.53l-40.58 0 0 -369.58 40.58 0 0 369.58zm0 -475.43l-40.58 0 0 -57.36 40.58 0 0 57.36zm176.97 11.31l0 94.54 81.26 0 0 33.46 -81.26 0 0 240.87c0,24.13 4.31,41.27 13.17,51.41 8.74,10.03 20.4,15.16 34.98,15.16 5.01,0 9.79,-0.35 14.45,-0.82 4.67,-0.58 10.26,-1.63 16.56,-2.91l6.17 30.31c-5.47,2.8 -12.23,5.01 -20.28,6.76 -8.04,1.63 -16.09,2.45 -24.13,2.57 -25.89,-0.12 -46.17,-8.28 -60.63,-24.61 -14.45,-16.43 -21.68,-42.43 -21.68,-77.87l0 -240.87 -63.88 0 0 -33.46 63.88 0 0 -94.54 41.39 0zm395.22 464.12c-2.56,-12.94 -4.42,-24.13 -5.71,-33.46 -1.17,-9.33 -1.87,-18.89 -1.87,-28.68 -12.71,20.06 -30.54,36.61 -53.62,49.67 -22.97,13.05 -49.32,19.58 -79.16,19.7 -36.27,-0.12 -64.36,-9.68 -84.3,-28.91 -19.82,-19.24 -29.84,-45.35 -29.84,-78.35 0,-33.11 14.45,-59.81 43.36,-80.33 28.92,-20.51 66.58,-30.78 112.75,-30.78l90.81 0 0 -45.69c0,-26.47 -8.39,-47.11 -25.06,-62.14 -16.79,-15.05 -40.34,-22.62 -70.88,-22.62 -27.99,0 -50.6,6.88 -67.74,20.52 -17.26,13.63 -25.88,30.89 -25.88,51.52l-37.9 0 -0.69 -1.97c-1.28,-27.75 10.61,-52.23 35.68,-73.34 25.18,-20.98 58.05,-31.59 98.62,-31.59 40.46,0 73.11,10.37 97.7,31.13 24.49,20.75 36.84,50.48 36.84,89.18l0 181.65c0,13.05 0.71,25.64 2.22,38 1.51,12.24 3.96,24.37 7.34,36.49l-42.67 0zm-135.94 -29.03c31.37,0 58.64,-7.46 81.62,-22.38 22.96,-14.93 38.58,-34.05 46.74,-57.59l0 -70.66 -91.16 0c-33.23,0 -60.63,7.93 -82.31,23.78 -21.69,15.75 -32.42,34.87 -32.42,57.13 0,20.99 6.88,37.89 20.64,50.6 13.76,12.71 32.76,19.12 56.89,19.12zm413.3 1.75c26.22,0 49.31,-7.81 69.48,-23.31 20.17,-15.39 30.31,-36.96 30.31,-64.48l36.5 0 0.69 1.98c0.93,34.16 -12.59,62.73 -40.34,85.81 -27.75,22.96 -59.92,34.39 -96.64,34.51 -49.21,-0.12 -87.45,-17.37 -114.96,-52 -27.4,-34.63 -41.15,-78.93 -41.15,-132.79l0 -14.46c0,-53.63 13.64,-97.81 41.04,-132.44 27.28,-34.62 65.52,-51.99 114.71,-51.99 39.64,0 72.64,12.01 99.1,35.91 26.35,23.9 39.17,55.37 38.24,94.32l-0.69 1.97 -36.5 0c0,-29.6 -9.67,-53.16 -29.03,-70.88 -19.47,-17.6 -43.13,-26.46 -71.12,-26.46 -38.7,0 -67.49,14.22 -86.38,42.67 -18.89,28.56 -28.33,64.12 -28.33,106.9l0 14.46c0,43.49 9.44,79.4 28.33,107.72 18.89,28.33 47.8,42.56 86.74,42.56zm270.48 27.28l-40.57 0 0 -369.58 40.57 0 0 369.58zm0 -475.43l-40.57 0 0 -57.36 40.57 0 0 57.36zm90.23 285.17c0,-54.45 14.93,-98.98 44.65,-133.85 29.84,-34.86 69.37,-52.34 118.57,-52.34 49.43,0 89.07,17.48 118.91,52.34 29.73,34.87 44.66,79.4 44.66,133.85l0 11.3c0,54.68 -14.81,99.33 -44.53,134.07 -29.73,34.75 -69.14,52 -118.34,52.12 -49.66,-0.12 -89.43,-17.37 -119.27,-52.12 -29.72,-34.74 -44.65,-79.39 -44.65,-134.07l0 -11.3zm40.92 11.3c0,42.79 10.84,78.81 32.42,107.96 21.68,29.15 51.87,43.72 90.58,43.72 38,0 67.85,-14.57 89.66,-43.72 21.68,-29.15 32.64,-65.17 32.64,-107.96l0 -11.3c0,-42.1 -10.96,-77.89 -32.88,-107.26 -21.8,-29.38 -51.88,-44.07 -90.12,-44.07 -38.24,0 -68.2,14.69 -89.88,44.07 -21.58,29.37 -32.42,65.16 -32.42,107.26l0 11.3zm173.6 -347.19l50.25 0 0.93 1.99 -85 88.83 -36.6 0 70.42 -90.82zm233.86 156.57l3.85 64.24c12.01,-22.61 28.09,-39.98 48.15,-52.46 20.05,-12.35 43.84,-18.65 71.35,-18.65 40.1,0 70.65,12.24 91.51,36.72 20.99,24.49 31.49,62.73 31.49,114.6l0 225.13 -41.05 0 0 -224.77c0,-42.33 -7.92,-72.29 -23.66,-89.78 -15.86,-17.6 -38.35,-26.35 -67.5,-26.35 -29.14,0 -52.7,7.23 -70.53,21.57 -17.84,14.35 -30.78,33.58 -38.71,57.72l0 261.61 -41.04 0 0 -369.58 36.14 0zm584.43 369.58l-40.92 0 0 -497.35 40.92 0 0 497.35zm164.27 -369.58l3.86 64.24c12,-22.61 28.09,-39.98 48.14,-52.46 20.06,-12.35 43.84,-18.65 71.35,-18.65 40.1,0 70.65,12.24 91.52,36.72 20.99,24.49 31.48,62.73 31.48,114.6l0 225.13 -41.04 0 0 -224.77c0,-42.33 -7.92,-72.29 -23.66,-89.78 -15.86,-17.6 -38.36,-26.35 -67.51,-26.35 -29.14,0 -52.69,7.23 -70.53,21.57 -17.84,14.35 -30.78,33.58 -38.7,57.72l0 261.61 -41.05 0 0 -369.58 36.14 0zm574.54 274.92c0,-17.26 -7.12,-32.3 -21.34,-45.24 -14.22,-12.83 -39.88,-23.32 -76.95,-31.6 -43.71,-9.09 -76.25,-21.57 -97.57,-37.42 -21.23,-15.74 -31.95,-37.89 -31.95,-66.34 0,-28.32 11.89,-52.22 35.67,-71.81 23.79,-19.59 55.38,-29.38 94.44,-29.38 41.26,0 74.14,10.49 98.74,31.36 24.6,20.75 36.38,46.4 35.21,76.94l-0.7 2.1 -37.89 0c0,-20.28 -8.75,-37.89 -26.11,-52.92 -17.49,-15.05 -40.46,-22.62 -69.25,-22.62 -29.5,0 -51.89,6.52 -66.92,19.47 -15.04,13.05 -22.5,28.1 -22.5,45.46 0,16.79 6.4,30.78 19.23,41.86 12.94,11.08 38.59,20.75 77.07,29.15 43.25,9.56 76,22.96 98.16,39.98 22.26,17.15 33.34,40.11 33.34,69.02 0,30.78 -12.48,55.73 -37.43,74.97 -24.95,19.23 -57.82,28.79 -98.85,28.91 -44.89,-0.12 -80.1,-10.73 -105.75,-32.18 -25.53,-21.34 -37.66,-46.86 -36.38,-76.48l0.71 -2.1 37.53 0c1.64,26.7 12.48,46.06 32.65,58.06 20.17,12.13 43.96,18.19 71.24,18.19 29.6,0 52.92,-6.64 70.06,-19.82 17.02,-13.29 25.54,-29.03 25.54,-47.56zm198.88 -369.46l0 94.54 81.26 0 0 33.46 -81.26 0 0 240.87c0,24.13 4.31,41.27 13.18,51.41 8.74,10.03 20.4,15.16 34.97,15.16 5.01,0 9.79,-0.35 14.46,-0.82 4.66,-0.58 10.26,-1.63 16.55,-2.91l6.18 30.31c-5.47,2.8 -12.24,5.01 -20.29,6.76 -8.03,1.63 -16.08,2.45 -24.13,2.57 -25.88,-0.12 -46.17,-8.28 -60.62,-24.61 -14.46,-16.43 -21.69,-42.43 -21.69,-77.87l0 -240.87 -63.88 0 0 -33.46 63.88 0 0 -94.54 41.39 0zm206.95 464.12l-40.57 0 0 -369.58 40.57 0 0 369.58zm0 -475.43l-40.57 0 0 -57.36 40.57 0 0 57.36zm176.97 11.31l0 94.54 81.26 0 0 33.46 -81.26 0 0 240.87c0,24.13 4.31,41.27 13.17,51.41 8.74,10.03 20.41,15.16 34.98,15.16 5.01,0 9.79,-0.35 14.45,-0.82 4.67,-0.58 10.26,-1.63 16.56,-2.91l6.18 30.31c-5.48,2.8 -12.24,5.01 -20.29,6.76 -8.04,1.63 -16.08,2.45 -24.13,2.57 -25.89,-0.12 -46.17,-8.28 -60.63,-24.61 -14.45,-16.43 -21.68,-42.43 -21.68,-77.87l0 -240.87 -63.88 0 0 -33.46 63.88 0 0 -94.54 41.39 0zm403.04 403.97c-11.78,21.68 -27.75,38.35 -47.69,49.89 -19.82,11.66 -43.49,17.37 -70.76,17.49 -38.94,-0.12 -69.49,-13.29 -91.64,-39.64 -22.04,-26.46 -33.11,-67.39 -33.11,-123l0 -214.17 41.03 0 0 214.87c0,45.12 7.7,77.41 23.09,97 15.28,19.59 37.08,29.38 65.41,29.38 30.65,0 55.26,-6.87 73.56,-20.64 18.31,-13.87 31.24,-32.64 38.71,-56.54l0 -264.07 41.03 0 0 369.58 -36.25 0 -3.38 -60.15zm282.83 32.87c26.22,0 49.31,-7.81 69.48,-23.31 20.17,-15.39 30.31,-36.96 30.31,-64.48l36.5 0 0.69 1.98c0.93,34.16 -12.59,62.73 -40.34,85.81 -27.75,22.96 -59.92,34.39 -96.64,34.51 -49.21,-0.12 -87.45,-17.37 -114.96,-52 -27.4,-34.63 -41.15,-78.93 -41.15,-132.79l0 -14.46c0,-53.63 13.64,-97.81 41.04,-132.44 27.28,-34.62 65.52,-51.99 114.71,-51.99 39.64,0 72.64,12.01 99.1,35.91 26.35,23.9 39.17,55.37 38.24,94.32l-0.69 1.97 -36.5 0c0,-29.6 -9.67,-53.16 -29.03,-70.88 -19.47,-17.6 -43.13,-26.46 -71.12,-26.46 -38.7,0 -67.49,14.22 -86.38,42.67 -18.89,28.56 -28.33,64.12 -28.33,106.9l0 14.46c0,43.49 9.44,79.4 28.33,107.72 18.89,28.33 47.8,42.56 86.74,42.56zm270.48 27.28l-40.57 0 0 -369.58 40.57 0 0 369.58zm0 -475.43l-40.57 0 0 -57.36 40.57 0 0 57.36zm90.23 285.17c0,-54.45 14.93,-98.98 44.65,-133.85 29.84,-34.86 69.37,-52.34 118.57,-52.34 49.43,0 89.07,17.48 118.91,52.34 29.73,34.87 44.66,79.4 44.66,133.85l0 11.3c0,54.68 -14.81,99.33 -44.53,134.07 -29.73,34.75 -69.14,52 -118.34,52.12 -49.66,-0.12 -89.43,-17.37 -119.27,-52.12 -29.72,-34.74 -44.65,-79.39 -44.65,-134.07l0 -11.3zm40.92 11.3c0,42.79 10.84,78.81 32.42,107.96 21.68,29.15 51.87,43.72 90.58,43.72 38,0 67.85,-14.57 89.66,-43.72 21.68,-29.15 32.64,-65.17 32.64,-107.96l0 -11.3c0,-42.1 -10.96,-77.89 -32.88,-107.26 -21.8,-29.38 -51.88,-44.07 -90.12,-44.07 -38.24,0 -68.2,14.69 -89.88,44.07 -21.58,29.37 -32.42,65.16 -32.42,107.26l0 11.3zm407.46 -190.62l3.85 64.24c12.01,-22.61 28.1,-39.98 48.15,-52.46 20.05,-12.35 43.84,-18.65 71.35,-18.65 40.1,0 70.65,12.24 91.51,36.72 20.99,24.49 31.49,62.73 31.49,114.6l0 225.13 -41.05 0 0 -224.77c0,-42.33 -7.92,-72.29 -23.66,-89.78 -15.86,-17.6 -38.35,-26.35 -67.5,-26.35 -29.14,0 -52.7,7.23 -70.53,21.57 -17.84,14.35 -30.78,33.58 -38.71,57.72l0 261.61 -41.04 0 0 -369.58 36.14 0zm587.24 369.58c-2.57,-12.94 -4.43,-24.13 -5.72,-33.46 -1.17,-9.33 -1.86,-18.89 -1.86,-28.68 -12.71,20.06 -30.55,36.61 -53.63,49.67 -22.96,13.05 -49.31,19.58 -79.16,19.7 -36.26,-0.12 -64.35,-9.68 -84.29,-28.91 -19.82,-19.24 -29.85,-45.35 -29.85,-78.35 0,-33.11 14.46,-59.81 43.37,-80.33 28.92,-20.51 66.57,-30.78 112.74,-30.78l90.82 0 0 -45.69c0,-26.47 -8.39,-47.11 -25.07,-62.14 -16.78,-15.05 -40.34,-22.62 -70.88,-22.62 -27.98,0 -50.6,6.88 -67.73,20.52 -17.26,13.63 -25.89,30.89 -25.89,51.52l-37.89 0 -0.69 -1.97c-1.29,-27.75 10.61,-52.23 35.67,-73.34 25.18,-20.98 58.05,-31.59 98.63,-31.59 40.45,0 73.1,10.37 97.7,31.13 24.48,20.75 36.84,50.48 36.84,89.18l0 181.65c0,13.05 0.7,25.64 2.21,38 1.52,12.24 3.96,24.37 7.35,36.49l-42.67 0zm-135.94 -29.03c31.36,0 58.64,-7.46 81.61,-22.38 22.97,-14.93 38.59,-34.05 46.75,-57.59l0 -70.66 -91.17 0c-33.22,0 -60.62,7.93 -82.3,23.78 -21.7,15.75 -32.42,34.87 -32.42,57.13 0,20.99 6.88,37.89 20.64,50.6 13.75,12.71 32.76,19.12 56.89,19.12zm323.76 29.03l-40.57 0 0 -532.79 40.57 0 0 532.79z"/>
   <path class="fil7" d="M2977.59 10236.28l0 141.69 -25.87 0 0 -313.32 104.44 0c33.58,0 59.39,7.36 77.32,22.13 17.93,14.7 26.9,36.16 26.9,64.45 0,16.69 -4.78,31.53 -14.34,44.69 -9.55,13.15 -23.07,22.71 -40.57,28.74 19.41,4.85 33.37,13.59 41.9,26.16 8.53,12.57 12.79,28.3 12.79,47.27l0 29.47c0,9.77 1.18,18.51 3.46,26.31 2.27,7.72 6.09,14.04 11.39,18.96l0 5.14 -26.24 0c-5.3,-5.14 -9.05,-12.41 -11.25,-21.75 -2.13,-9.34 -3.16,-19.04 -3.16,-29.04l0 -28.66c0,-19.25 -6.24,-34.39 -18.67,-45.56 -12.42,-11.1 -29.76,-16.68 -51.96,-16.68l-86.14 0zm0 -21.98l75.55 0c28.3,0 48.96,-5.66 62.04,-17.06 13.01,-11.46 19.55,-26.82 19.55,-46.23 0,-20.65 -6.47,-36.52 -19.47,-47.69 -13.02,-11.1 -32.72,-16.69 -59.1,-16.69l-78.57 0 0 127.67zm344.92 168.23c-30.13,-0.07 -54.61,-10.73 -73.42,-32.04 -18.81,-21.32 -28.22,-48.66 -28.22,-82.1l0 -11.84c0,-33.58 9.55,-61.29 28.52,-83.12 19.03,-21.83 42.62,-32.78 70.77,-32.78 28.3,0 50.12,9.12 65.56,27.27 15.43,18.15 23.15,42.63 23.15,73.35l0 19.99 -162.14 0 0 7.13c0,26.54 6.7,48.58 20.15,66.07 13.38,17.5 31.97,26.32 55.63,26.32 14.19,0 27.27,-2.35 39.17,-7.06 11.91,-4.63 21.84,-10.95 29.7,-18.82l11.03 17.64c-8.17,8.6 -18.89,15.8 -32.2,21.46 -13.3,5.67 -29.18,8.46 -47.7,8.53zm-2.35 -219.9c-19.84,0 -36.09,7.13 -48.88,21.32 -12.78,14.25 -20.28,32.25 -22.41,54.09l0.66 1.24 133.47 0 0 -5.36c0,-20.65 -5.37,-37.71 -16.24,-51.16 -10.81,-13.37 -26.39,-20.13 -46.6,-20.13zm280.32 155.66c0,-10.88 -4.48,-20.36 -13.45,-28.51 -8.97,-8.09 -25.13,-14.7 -48.51,-19.92 -27.55,-5.73 -48.06,-13.6 -61.51,-23.6 -13.38,-9.91 -20.14,-23.88 -20.14,-41.81 0,-17.86 7.5,-32.93 22.49,-45.28 15,-12.34 34.91,-18.52 59.53,-18.52 26.02,0 46.75,6.61 62.25,19.77 15.51,13.09 22.93,29.26 22.2,48.51l-0.44 1.33 -23.88 0c0,-12.79 -5.52,-23.89 -16.47,-33.37 -11.02,-9.48 -25.5,-14.26 -43.66,-14.26 -18.6,0 -32.7,4.11 -42.18,12.27 -9.48,8.24 -14.19,17.72 -14.19,28.66 0,10.59 4.04,19.41 12.13,26.39 8.15,6.98 24.33,13.08 48.58,18.38 27.27,6.02 47.92,14.47 61.88,25.21 14.04,10.8 21.02,25.28 21.02,43.51 0,19.4 -7.86,35.13 -23.59,47.25 -15.73,12.13 -36.45,18.16 -62.33,18.23 -28.29,-0.07 -50.49,-6.76 -66.66,-20.28 -16.09,-13.45 -23.74,-29.55 -22.93,-48.22l0.44 -1.32 23.67 0c1.03,16.83 7.87,29.03 20.58,36.6 12.71,7.64 27.71,11.47 44.9,11.47 18.67,0 33.38,-4.2 44.17,-12.5 10.74,-8.38 16.1,-18.3 16.1,-29.99zm70.71 -60.26c0,-34.32 9.4,-62.41 28.14,-84.37 18.82,-21.98 43.73,-33.01 74.74,-33.01 31.17,0 56.16,11.03 74.98,33.01 18.74,21.96 28.14,50.05 28.14,84.37l0 7.13c0,34.47 -9.33,62.61 -28.07,84.52 -18.75,21.9 -43.59,32.78 -74.6,32.85 -31.31,-0.07 -56.37,-10.95 -75.19,-32.85 -18.74,-21.91 -28.14,-50.05 -28.14,-84.52l0 -7.13zm25.79 7.13c0,26.97 6.84,49.68 20.43,68.05 13.67,18.38 32.71,27.57 57.11,27.57 23.96,0 42.78,-9.19 56.52,-27.57 13.67,-18.37 20.58,-41.08 20.58,-68.05l0 -7.13c0,-26.53 -6.91,-49.1 -20.73,-67.62 -13.74,-18.52 -32.7,-27.78 -56.82,-27.78 -24.1,0 -42.99,9.26 -56.66,27.78 -13.59,18.52 -20.43,41.09 -20.43,67.62l0 7.13zm262.9 112.81l-25.58 0 0 -335.87 25.58 0 0 335.87zm223.72 -37.92c-7.42,13.67 -17.49,24.18 -30.06,31.45 -12.5,7.36 -27.42,10.96 -44.61,11.03 -24.55,-0.07 -43.81,-8.37 -57.77,-24.98 -13.9,-16.69 -20.87,-42.49 -20.87,-77.55l0 -135.01 25.86 0 0 135.45c0,28.44 4.85,48.81 14.56,61.15 9.63,12.35 23.37,18.53 41.23,18.53 19.33,0 34.84,-4.35 46.38,-13.02 11.54,-8.75 19.69,-20.57 24.4,-35.64l0 -166.47 25.86 0 0 232.98 -22.85 0 -2.13 -37.92zm178.3 20.73c16.54,0 31.09,-4.93 43.8,-14.71 12.72,-9.69 19.11,-23.29 19.11,-40.64l23.01 0 0.44 1.25c0.59,21.54 -7.94,39.54 -25.43,54.1 -17.49,14.47 -37.78,21.68 -60.93,21.75 -31.01,-0.07 -55.13,-10.95 -72.47,-32.78 -17.27,-21.83 -25.94,-49.76 -25.94,-83.71l0 -9.11c0,-33.81 8.6,-61.67 25.86,-83.5 17.21,-21.83 41.31,-32.78 72.33,-32.78 24.99,0 45.78,7.58 62.47,22.64 16.61,15.07 24.7,34.91 24.11,59.46l-0.44 1.25 -23.01 0c0,-18.67 -6.1,-33.52 -18.3,-44.69 -12.27,-11.09 -27.19,-16.68 -44.83,-16.68 -24.4,0 -42.55,8.96 -54.46,26.9 -11.91,18 -17.87,40.42 -17.87,67.4l0 9.11c0,27.41 5.96,50.05 17.87,67.91 11.91,17.86 30.13,26.83 54.68,26.83zm170.52 17.19l-25.58 0 0 -232.98 25.58 0 0 232.98zm0 -299.72l-25.58 0 0 -36.15 25.58 0 0 36.15zm56.89 179.78c0,-34.32 9.4,-62.41 28.14,-84.37 18.82,-21.98 43.73,-33.01 74.74,-33.01 31.17,0 56.16,11.03 74.98,33.01 18.74,21.96 28.14,50.05 28.14,84.37l0 7.13c0,34.47 -9.33,62.61 -28.07,84.52 -18.75,21.9 -43.59,32.78 -74.6,32.85 -31.32,-0.07 -56.37,-10.95 -75.19,-32.85 -18.74,-21.91 -28.14,-50.05 -28.14,-84.52l0 -7.13zm25.79 7.13c0,26.97 6.84,49.68 20.43,68.05 13.67,18.38 32.71,27.57 57.11,27.57 23.96,0 42.78,-9.19 56.52,-27.57 13.66,-18.37 20.58,-41.08 20.58,-68.05l0 -7.13c0,-26.53 -6.92,-49.1 -20.73,-67.62 -13.74,-18.52 -32.7,-27.78 -56.82,-27.78 -24.1,0 -42.99,9.26 -56.66,27.78 -13.59,18.52 -20.43,41.09 -20.43,67.62l0 7.13zm109.43 -218.88l31.68 0 0.59 1.26 -53.58 55.99 -23.08 0 44.39 -57.25zm147.44 98.71l2.42 40.5c7.58,-14.26 17.72,-25.21 30.35,-33.08 12.64,-7.79 27.64,-11.76 44.99,-11.76 25.28,0 44.53,7.72 57.69,23.15 13.24,15.44 19.85,39.54 19.85,72.25l0 141.92 -25.88 0 0 -141.69c0,-26.69 -4.99,-45.58 -14.91,-56.6 -10,-11.1 -24.18,-16.61 -42.56,-16.61 -18.37,0 -33.22,4.55 -44.46,13.6 -11.25,9.04 -19.41,21.16 -24.41,36.37l0 164.93 -25.87 0 0 -232.98 22.79 0zm481.11 132l49.09 0 0 21.75 -49.09 0 0 79.23 -25.65 0 0 -79.23 -144.06 0 0 -14.62 141.48 -219.68 28.23 0 0 212.55zm-139.14 0l113.49 0 0 -178.74 -1.33 -0.45 -10.95 23.53 -101.21 155.66zm421.81 -190.58c-35.13,41.09 -61.59,82.17 -79.38,123.25 -17.71,41.16 -26.53,86.96 -26.53,137.3l0 31.01 -25.87 0 0 -31.01c0,-49.84 9.26,-95.92 27.71,-138.25 18.44,-42.33 44.24,-83.13 77.39,-122.3l-177.2 0 0 -21.97 203.88 0 0 21.97zm132.44 274.37c22.93,0 41.23,-7.65 54.91,-22.86 13.6,-15.21 20.43,-36.46 20.43,-63.72l0 -45.64c-7.64,12.78 -17.79,22.55 -30.5,29.47 -12.64,6.91 -26.68,10.36 -42.04,10.36 -28.45,0 -51.23,-9.48 -68.35,-28.3 -17.2,-18.88 -25.8,-43.5 -25.8,-73.79 0,-30.57 9.04,-55.93 26.97,-76.14 17.94,-20.14 40.35,-30.21 67.4,-30.21 29.54,0 53.43,9.71 71.65,29.03 18.23,19.4 27.35,46.97 27.35,82.69l0 102.09c0,34.03 -9.41,60.63 -28.3,79.89 -18.89,19.25 -43.44,28.81 -73.72,28.88 -10.8,-0.07 -21.68,-1.17 -32.63,-3.45 -11.03,-2.35 -21.68,-5.73 -31.97,-10.15l4.71 -20.87c9.48,4.55 18.81,7.87 27.92,9.78 9.11,1.9 19.77,2.94 31.97,2.94zm2.8 -114.14c18.23,0 33.58,-4.63 46.08,-13.83 12.5,-9.18 21.32,-20.5 26.46,-34.03l0 -29.9c0,-27.86 -6.47,-49.32 -19.4,-64.39 -12.86,-15.07 -30.21,-22.56 -51.9,-22.56 -20.2,0 -36.74,8.08 -49.53,24.33 -12.71,16.16 -19.11,36.23 -19.11,60.04 0,23 5.95,42.12 17.93,57.41 11.99,15.28 28.52,22.93 49.47,22.93zm353.74 131.33l-190.8 0 0 -19.84 103.19 -120.31c18.38,-21.69 31.02,-39.47 38.07,-53.29 7.06,-13.89 10.59,-27.56 10.59,-41.01 0,-19.11 -5.15,-34.17 -15.44,-45.13 -10.22,-11.02 -25.43,-16.46 -45.49,-16.46 -22.41,0 -39.61,6.61 -51.74,19.91 -12.06,13.24 -18.08,30.21 -18.08,50.86l-24.11 0 -0.44 -1.24c-0.66,-25.58 7.57,-47.19 24.77,-64.9 17.27,-17.79 40.42,-26.61 69.6,-26.61 26.83,0 47.99,7.5 63.5,22.57 15.51,15.14 23.22,35.5 23.22,61.15 0,16.97 -5.06,33.88 -15.28,50.86 -10.15,16.9 -25.21,37.48 -44.98,61.59l-84.82 99 0.45 1.1 157.79 0 0 21.75zm151.78 -114.58c0,-37.11 7.86,-66.88 23.59,-89.23 15.73,-22.34 37.63,-33.51 65.78,-33.51 15.95,0 29.92,3.38 41.9,10.15 11.97,6.75 21.89,16.31 29.83,28.66l0 -137.36 25.8 0 0 335.87 -21.1 0 -3.67 -33.8c-7.86,12.34 -17.93,21.82 -30.13,28.44 -12.21,6.61 -26.54,9.85 -43.08,9.92 -27.85,-0.07 -49.6,-10.44 -65.33,-31.16 -15.73,-20.73 -23.59,-48.51 -23.59,-83.42l0 -4.56zm25.87 4.56c0,28.15 5.59,50.49 16.9,67.17 11.24,16.69 28.23,25 50.93,25 16.61,0 30.51,-3.68 41.53,-11.1 11.03,-7.43 19.7,-17.64 25.87,-30.73l0 -110.46c-5.88,-13.16 -14.26,-23.96 -24.99,-32.27 -10.8,-8.3 -24.76,-12.49 -42.04,-12.49 -22.64,0 -39.68,9.33 -51.08,27.93 -11.46,18.52 -17.12,42.7 -17.12,72.39l0 4.56zm318.23 114.58c-30.13,-0.07 -54.61,-10.73 -73.41,-32.04 -18.82,-21.32 -28.23,-48.66 -28.23,-82.1l0 -11.84c0,-33.58 9.55,-61.29 28.52,-83.12 19.03,-21.83 42.63,-32.78 70.77,-32.78 28.3,0 50.13,9.12 65.56,27.27 15.43,18.15 23.15,42.63 23.15,73.35l0 19.99 -162.13 0 0 7.13c0,26.54 6.69,48.58 20.14,66.07 13.38,17.5 31.97,26.32 55.63,26.32 14.19,0 27.28,-2.35 39.18,-7.06 11.91,-4.63 21.83,-10.95 29.69,-18.82l11.03 17.64c-8.16,8.6 -18.89,15.8 -32.2,21.46 -13.29,5.67 -29.17,8.46 -47.7,8.53zm-2.35 -219.9c-19.84,0 -36.08,7.13 -48.87,21.32 -12.79,14.25 -20.29,32.25 -22.42,54.09l0.66 1.24 133.48 0 0 -5.36c0,-20.65 -5.37,-37.71 -16.25,-51.16 -10.81,-13.37 -26.38,-20.13 -46.6,-20.13zm169.64 215.34l-25.58 0 0 -335.87 25.58 0 0 335.87zm286.41 0l-25.86 0 0 -291.34 -74.31 9.04 0 -20.65 100.17 -15.07 0 318.02zm142.74 -141.04l17.2 -172.49 152.43 0 0 23.95 -130.23 0 -11.62 112.82c7.86,-7.05 16.61,-12.56 26.16,-16.61 9.56,-4.04 22.35,-6.24 38.45,-6.69 26.83,-0.43 48.36,8.46 64.67,26.54 16.32,18.07 24.48,42.62 24.48,73.64 0,31.68 -8.01,57.03 -23.96,75.99 -15.88,18.97 -39.83,28.38 -71.66,28.45 -25.87,-0.07 -47.4,-7.28 -64.61,-21.68 -17.19,-14.4 -25.5,-35.79 -24.76,-64.02l0.44 -1.32 23.23 0c0,21.09 5.94,37.26 17.85,48.43 11.98,11.18 27.85,16.84 47.85,16.84 23.37,0 40.86,-7.06 52.41,-21.1 11.53,-14.11 17.34,-34.46 17.34,-61.22 0,-23.38 -5.81,-41.97 -17.34,-55.71 -11.55,-13.82 -27.79,-20.73 -48.74,-20.73 -19.99,0 -35.2,3.24 -45.78,9.63 -10.59,6.4 -18.23,16.02 -22.93,28.96l-20.88 -3.68zm335.23 26.46c0,-37.11 7.86,-66.88 23.59,-89.23 15.73,-22.34 37.63,-33.51 65.78,-33.51 15.95,0 29.91,3.38 41.89,10.15 11.98,6.75 21.9,16.31 29.84,28.66l0 -137.36 25.8 0 0 335.87 -21.1 0 -3.67 -33.8c-7.86,12.34 -17.93,21.82 -30.14,28.44 -12.2,6.61 -26.53,9.85 -43.07,9.92 -27.85,-0.07 -49.6,-10.44 -65.33,-31.16 -15.73,-20.73 -23.59,-48.51 -23.59,-83.42l0 -4.56zm25.87 4.56c0,28.15 5.59,50.49 16.9,67.17 11.24,16.69 28.23,25 50.93,25 16.61,0 30.51,-3.68 41.53,-11.1 11.02,-7.43 19.69,-17.64 25.87,-30.73l0 -110.46c-5.88,-13.16 -14.26,-23.96 -24.99,-32.27 -10.8,-8.3 -24.77,-12.49 -42.04,-12.49 -22.64,0 -39.68,9.33 -51.08,27.93 -11.46,18.52 -17.12,42.7 -17.12,72.39l0 4.56zm318.23 114.58c-30.13,-0.07 -54.61,-10.73 -73.42,-32.04 -18.81,-21.32 -28.22,-48.66 -28.22,-82.1l0 -11.84c0,-33.58 9.55,-61.29 28.52,-83.12 19.03,-21.83 42.63,-32.78 70.77,-32.78 28.3,0 50.12,9.12 65.56,27.27 15.43,18.15 23.15,42.63 23.15,73.35l0 19.99 -162.14 0 0 7.13c0,26.54 6.7,48.58 20.15,66.07 13.38,17.5 31.97,26.32 55.63,26.32 14.19,0 27.27,-2.35 39.17,-7.06 11.91,-4.63 21.84,-10.95 29.7,-18.82l11.03 17.64c-8.16,8.6 -18.89,15.8 -32.2,21.46 -13.3,5.67 -29.18,8.46 -47.7,8.53zm-2.35 -219.9c-19.84,0 -36.08,7.13 -48.88,21.32 -12.78,14.25 -20.28,32.25 -22.41,54.09l0.66 1.24 133.47 0 0 -5.36c0,-20.65 -5.36,-37.71 -16.24,-51.16 -10.81,-13.37 -26.38,-20.13 -46.6,-20.13zm270.04 -17.64l2.35 38.36c7.49,-13.52 17.41,-24.03 29.83,-31.46 12.43,-7.49 27.12,-11.24 44.25,-11.24 17.78,0 32.63,4.34 44.54,12.86 11.9,8.53 20.51,21.54 25.65,39.11 7.05,-16.25 17.05,-28.96 30.06,-38.15 12.94,-9.19 28.66,-13.82 47.04,-13.82 24.84,0 44.02,8.31 57.54,24.77 13.6,16.54 20.37,42.11 20.37,76.66l0 135.89 -25.81 0 0 -136.26c0,-28.74 -5.14,-49.02 -15.28,-60.85 -10.22,-11.84 -24.25,-17.79 -42.26,-17.79 -19.62,0 -34.84,6.03 -45.64,18 -10.73,11.98 -17.57,27.42 -20.43,46.39 0,1.61 0.07,3.16 0.07,4.77 0.08,1.54 0.15,3.53 0.15,6.02l0 139.72 -26.09 0 0 -136.26c0,-28.15 -5.08,-48.28 -15.37,-60.42 -10.28,-12.12 -24.39,-18.22 -42.33,-18.22 -18.08,0 -32.49,4.55 -43.14,13.67 -10.74,9.11 -18.23,21.46 -22.5,36.97l0 164.26 -25.86 0 0 -232.98 22.86 0zm516.31 232.98c-1.62,-8.16 -2.8,-15.21 -3.61,-21.09 -0.73,-5.88 -1.17,-11.9 -1.17,-18.08 -8.01,12.64 -19.26,23.08 -33.81,31.31 -14.48,8.23 -31.09,12.35 -49.91,12.42 -22.86,-0.07 -40.57,-6.1 -53.13,-18.23 -12.5,-12.12 -18.82,-28.59 -18.82,-49.39 0,-20.87 9.12,-37.7 27.34,-50.64 18.23,-12.93 41.97,-19.4 71.07,-19.4l57.26 0 0 -28.81c0,-16.69 -5.29,-29.69 -15.8,-39.17 -10.59,-9.48 -25.43,-14.26 -44.69,-14.26 -17.64,0 -31.9,4.33 -42.7,12.93 -10.88,8.6 -16.32,19.48 -16.32,32.49l-23.88 0 -0.45 -1.25c-0.81,-17.5 6.7,-32.93 22.5,-46.23 15.87,-13.23 36.6,-19.92 62.17,-19.92 25.5,0 46.08,6.54 61.6,19.63 15.43,13.08 23.22,31.82 23.22,56.22l0 114.51c0,8.23 0.44,16.17 1.4,23.96 0.95,7.72 2.49,15.36 4.63,23l-26.9 0zm-85.7 -18.3c19.77,0 36.96,-4.7 51.45,-14.11 14.48,-9.4 24.32,-21.46 29.47,-36.3l0 -44.54 -57.48 0c-20.94,0 -38.22,4.99 -51.88,14.98 -13.67,9.93 -20.44,21.98 -20.44,36.02 0,13.24 4.34,23.89 13.01,31.9 8.67,8.01 20.65,12.05 35.87,12.05zm238.13 -44.76l8.23 27.79 1.25 0 70.41 -197.71 28.88 0 -101.2 270.24c-6.03,15.81 -13.89,29.18 -23.44,40.28 -9.63,11.03 -23.74,16.54 -42.26,16.54 -3.02,0 -6.62,-0.29 -10.96,-0.95 -4.34,-0.67 -7.5,-1.33 -9.48,-2.07l3.02 -21.53c1.69,0.29 4.48,0.66 8.3,0.95 3.82,0.38 6.54,0.6 8.31,0.6 11.17,0 20.13,-3.97 26.9,-11.98 6.76,-7.94 12.49,-18.16 17.19,-30.66l12.28 -31.45 -89.97 -229.97 28.59 0 63.95 169.92zm132.08 -56.88c0,-34.32 9.41,-62.41 28.15,-84.37 18.82,-21.98 43.73,-33.01 74.74,-33.01 31.17,0 56.16,11.03 74.98,33.01 18.73,21.96 28.14,50.05 28.14,84.37l0 7.13c0,34.47 -9.34,62.61 -28.07,84.52 -18.75,21.9 -43.59,32.78 -74.6,32.85 -31.32,-0.07 -56.37,-10.95 -75.19,-32.85 -18.74,-21.91 -28.15,-50.05 -28.15,-84.52l0 -7.13zm25.8 7.13c0,26.97 6.84,49.68 20.43,68.05 13.67,18.38 32.71,27.57 57.11,27.57 23.96,0 42.78,-9.19 56.52,-27.57 13.66,-18.37 20.58,-41.08 20.58,-68.05l0 -7.13c0,-26.53 -6.92,-49.1 -20.73,-67.62 -13.74,-18.52 -32.7,-27.78 -56.82,-27.78 -24.1,0 -42.99,9.26 -56.66,27.78 -13.59,18.52 -20.43,41.09 -20.43,67.62l0 7.13zm331.18 -1.77c0,-37.11 7.86,-66.88 23.58,-89.23 15.73,-22.34 37.64,-33.51 65.78,-33.51 15.95,0 29.92,3.38 41.9,10.15 11.97,6.75 21.9,16.31 29.84,28.66l0 -137.36 25.79 0 0 335.87 -21.09 0 -3.68 -33.8c-7.86,12.34 -17.93,21.82 -30.13,28.44 -12.2,6.61 -26.53,9.85 -43.07,9.92 -27.85,-0.07 -49.61,-10.44 -65.34,-31.16 -15.72,-20.73 -23.58,-48.51 -23.58,-83.42l0 -4.56zm25.86 4.56c0,28.15 5.59,50.49 16.91,67.17 11.24,16.69 28.22,25 50.93,25 16.61,0 30.5,-3.68 41.52,-11.1 11.03,-7.43 19.7,-17.64 25.88,-30.73l0 -110.46c-5.89,-13.16 -14.26,-23.96 -25,-32.27 -10.79,-8.3 -24.76,-12.49 -42.04,-12.49 -22.63,0 -39.68,9.33 -51.07,27.93 -11.47,18.52 -17.13,42.7 -17.13,72.39l0 4.56zm318.24 114.58c-30.13,-0.07 -54.61,-10.73 -73.42,-32.04 -18.82,-21.32 -28.23,-48.66 -28.23,-82.1l0 -11.84c0,-33.58 9.56,-61.29 28.52,-83.12 19.03,-21.83 42.63,-32.78 70.78,-32.78 28.29,0 50.12,9.12 65.55,27.27 15.44,18.15 23.16,42.63 23.16,73.35l0 19.99 -162.14 0 0 7.13c0,26.54 6.7,48.58 20.14,66.07 13.38,17.5 31.98,26.32 55.64,26.32 14.19,0 27.27,-2.35 39.17,-7.06 11.91,-4.63 21.84,-10.95 29.7,-18.82l11.02 17.64c-8.16,8.6 -18.88,15.8 -32.19,21.46 -13.3,5.67 -29.18,8.46 -47.7,8.53zm-2.35 -219.9c-19.84,0 -36.09,7.13 -48.88,21.32 -12.78,14.25 -20.28,32.25 -22.41,54.09l0.66 1.24 133.47 0 0 -5.36c0,-20.65 -5.37,-37.71 -16.25,-51.16 -10.8,-13.37 -26.38,-20.13 -46.59,-20.13zm437.75 215.34l-190.8 0 0 -19.84 103.19 -120.31c18.37,-21.69 31.01,-39.47 38.07,-53.29 7.06,-13.89 10.59,-27.56 10.59,-41.01 0,-19.11 -5.15,-34.17 -15.44,-45.13 -10.22,-11.02 -25.43,-16.46 -45.49,-16.46 -22.42,0 -39.61,6.61 -51.75,19.91 -12.05,13.24 -18.07,30.21 -18.07,50.86l-24.11 0 -0.44 -1.24c-0.66,-25.58 7.57,-47.19 24.77,-64.9 17.27,-17.79 40.42,-26.61 69.6,-26.61 26.83,0 47.99,7.5 63.5,22.57 15.5,15.14 23.22,35.5 23.22,61.15 0,16.97 -5.06,33.88 -15.28,50.86 -10.15,16.9 -25.21,37.48 -44.98,61.59l-84.82 99 0.45 1.1 157.79 0 0 21.75zm240.27 -110.68c0,35.72 -8.6,63.86 -25.95,84.44 -17.27,20.51 -41.01,30.73 -71.15,30.8 -30.13,-0.07 -53.94,-10.36 -71.51,-30.94 -17.49,-20.58 -26.23,-48.73 -26.23,-84.3l0 -92.16c0,-35.43 8.67,-63.51 26.02,-84.17 17.41,-20.72 41.16,-31.01 71.29,-31.01 30.13,0 53.95,10.29 71.36,31.01 17.5,20.66 26.17,48.74 26.17,84.17l0 92.16zm-25.8 -96.21c0,-27.41 -6.25,-49.17 -18.67,-65.19 -12.42,-15.95 -30.06,-23.96 -53.06,-23.96 -22.93,0 -40.65,8.01 -53.07,24.1 -12.42,16.1 -18.6,37.71 -18.6,65.05l0 100.11c0,27.11 6.25,48.79 18.82,65.11 12.57,16.31 30.28,24.48 53.28,24.48 22.86,0 40.43,-8.17 52.78,-24.33 12.34,-16.24 18.52,-38 18.52,-65.26l0 -100.11zm192.49 206.89l-25.87 0 0 -291.34 -74.31 9.04 0 -20.65 100.18 -15.07 0 318.02zm214.03 -17.19c22.93,0 41.23,-7.65 54.9,-22.86 13.6,-15.21 20.44,-36.46 20.44,-63.72l0 -45.64c-7.65,12.78 -17.8,22.55 -30.51,29.47 -12.64,6.91 -26.67,10.36 -42.04,10.36 -28.45,0 -51.22,-9.48 -68.35,-28.3 -17.2,-18.88 -25.8,-43.5 -25.8,-73.79 0,-30.57 9.04,-55.93 26.97,-76.14 17.94,-20.14 40.35,-30.21 67.4,-30.21 29.55,0 53.44,9.71 71.66,29.03 18.23,19.4 27.34,46.97 27.34,82.69l0 102.09c0,34.03 -9.41,60.63 -28.29,79.89 -18.89,19.25 -43.44,28.81 -73.72,28.88 -10.81,-0.07 -21.69,-1.17 -32.63,-3.45 -11.03,-2.35 -21.69,-5.73 -31.98,-10.15l4.71 -20.87c9.48,4.55 18.81,7.87 27.92,9.78 9.12,1.9 19.77,2.94 31.98,2.94zm2.79 -114.14c18.23,0 33.59,-4.63 46.08,-13.83 12.5,-9.18 21.32,-20.5 26.47,-34.03l0 -29.9c0,-27.86 -6.47,-49.32 -19.41,-64.39 -12.86,-15.07 -30.21,-22.56 -51.89,-22.56 -20.21,0 -36.75,8.08 -49.54,24.33 -12.71,16.16 -19.11,36.23 -19.11,60.04 0,23 5.96,42.12 17.94,57.41 11.98,15.28 28.52,22.93 49.46,22.93z"/>
   <path class="fil7" d="M2910.66 9549.1c0,-99.76 21.49,-180.2 64.08,-241.12 42.78,-61.11 102.91,-91.67 180.2,-91.67 33.9,0 64.26,6.9 91.08,20.5 26.81,13.8 49.88,33.32 69.59,58.76l0 -343.64 140.37 0 0 900.98 -113.75 0 -16.76 -79.06c-20.1,29.58 -44.36,52.25 -72.75,67.83 -28.59,15.57 -61.51,23.26 -98.77,23.45 -76.69,-0.19 -136.43,-27.99 -179.21,-83.78 -42.59,-55.8 -64.08,-129.34 -64.08,-220.02l0 -12.23zm140.37 12.23c0,57.56 11.05,103.7 33.32,138 22.08,34.31 57.18,51.26 105.28,51.26 29.78,0 54.81,-6.31 75.51,-18.93 20.51,-12.81 37.46,-30.95 50.47,-54.41l0 -272.47c-13.01,-23.26 -29.96,-41.2 -50.86,-54.02 -20.7,-13 -45.34,-19.51 -73.93,-19.51 -47.71,0 -83.01,20.3 -105.68,60.52 -22.67,40.22 -34.11,92.67 -34.11,157.33l0 12.23zm820.74 303.8c-91.28,-0.19 -162.65,-28.98 -214.1,-86.54 -51.26,-57.58 -77.09,-132.1 -77.09,-223.77l0 -23.07c0,-91.67 25.83,-167.18 77.09,-226.72 51.45,-59.54 117.7,-89.11 199.12,-88.72 83.79,0 147.47,26.03 190.45,77.88 43.18,51.65 64.87,120.85 64.87,207.6l0 75.7 -386.42 0 -1.19 2.76c1.38,51.26 14.98,92.86 40.42,124.8 25.43,31.93 63.68,47.9 114.94,47.9 38.05,0 71.17,-4.53 98.97,-13.79 27.99,-9.27 53.82,-22.48 77.68,-39.83l45.73 91.67c-23.85,20.9 -55.59,38.45 -94.82,52.65 -39.24,14.19 -84.38,21.29 -135.65,21.48zm-14.98 -536.05c-36.67,0 -65.85,13.21 -87.92,39.43 -21.89,26.42 -35.49,60.92 -41.01,103.11l1.17 2.96 244.28 0 0 -11.04c0,-40.03 -9.27,-72.36 -27.99,-97.2 -18.54,-24.84 -48.11,-37.26 -88.53,-37.26zm1564.21 523.83l-140.37 0 0 -900.98 140.37 0 0 900.98zm336.74 -776.78l0 151.81 111.98 0 0 103.9 -111.98 0 0 345.41c0,25.83 5.52,44.36 16.76,55.2 11.24,11.04 26.02,16.56 44.55,16.56 7.69,0 15.18,-0.78 22.48,-2.16 7.29,-1.19 14.2,-3.16 20.7,-5.33l15.18 102.71c-12.03,6.51 -26.22,11.64 -42.58,15.38 -16.36,3.56 -33.32,5.33 -51.07,5.52 -51.65,-0.19 -92.06,-15.17 -121.64,-45.34 -29.38,-30.36 -44.16,-77.88 -44.16,-142.54l0 -345.41 -95.23 0 0 -103.9 95.23 0 0 -151.81 139.78 0zm601.9 776.78c-4.92,-15.77 -9.06,-31.15 -12.42,-46.13 -3.15,-15.18 -5.52,-30.17 -6.5,-45.15 -18.93,29.18 -44.16,53.83 -75.71,73.74 -31.54,19.71 -66.84,29.57 -105.67,29.76 -65.26,-0.19 -115.14,-16.75 -150.03,-50.27 -34.71,-33.51 -52.25,-79.65 -52.25,-138.2 0,-60.33 23.85,-107.45 71.56,-141.16 47.92,-33.71 114.94,-50.47 201.69,-50.47l109.22 0 0 -55.01c0,-32.72 -9.66,-58.16 -28.58,-76.69 -19.13,-18.54 -46.73,-27.8 -83,-27.8 -31.94,0 -57.37,7.69 -76.3,22.87 -18.73,15.18 -28.19,34.9 -28.19,59.14l-135.25 0.6 -0.59 -3.36c-2.57,-49.28 19.52,-93.05 66.24,-131.3 46.73,-38.05 107.65,-57.17 182.76,-57.17 72.75,0 131.5,18.53 176.26,55.6 44.55,36.86 67.02,90.09 67.02,159.29l0 277.98c0,25.64 1.59,50.48 5.13,74.13 3.55,23.66 9.07,46.93 16.76,69.6l-142.15 0zm-171.52 -100.55c35.09,0 66.64,-8.87 95.03,-26.61 28.39,-17.54 47.12,-37.86 56.38,-60.53l0 -92.46 -111.58 0c-40.81,0 -72.75,10.06 -95.82,30.36 -23.07,20.11 -34.7,43.96 -34.7,71.37 0,23.85 7.89,42.78 23.46,56.78 15.58,14.2 38.06,21.09 67.23,21.09zm1361.93 -174.48l1.18 3.56c1.57,84.77 -26.03,153.18 -82.6,205.43 -56.59,52.04 -132.89,78.07 -229.3,78.26 -97.79,-0.19 -177.03,-33.12 -237.95,-99.16 -60.73,-66.05 -91.28,-150.43 -91.28,-253.34l0 -159.89c0,-102.52 30.15,-186.9 90.09,-253.34 60.13,-66.45 138.59,-99.57 235.2,-99.57 98.97,0 176.85,25.24 233.63,75.71 56.78,50.27 84.38,119.48 82.81,207.21l-1.19 3.55 -135.64 0c0,-56.19 -15.18,-99.17 -45.74,-129.14 -30.36,-29.76 -74.92,-44.75 -133.87,-44.75 -56.98,0 -102.12,22.67 -135.44,67.82 -33.32,45.35 -50.08,102.32 -50.08,171.32l0 161.08c0,69.79 16.96,127.16 50.87,172.5 33.91,45.15 80.04,67.82 138.59,67.82 57.38,0 100.95,-14.98 130.91,-44.95 29.78,-30.16 44.76,-73.34 44.76,-130.12l135.05 0zm498.59 275.03c-4.92,-15.77 -9.06,-31.15 -12.41,-46.13 -3.15,-15.18 -5.52,-30.17 -6.51,-45.15 -18.92,29.18 -44.16,53.83 -75.7,73.74 -31.55,19.71 -66.84,29.57 -105.68,29.76 -65.25,-0.19 -115.14,-16.75 -150.03,-50.27 -34.7,-33.51 -52.25,-79.65 -52.25,-138.2 0,-60.33 23.86,-107.45 71.57,-141.16 47.91,-33.71 114.94,-50.47 201.69,-50.47l109.22 0 0 -55.01c0,-32.72 -9.66,-58.16 -28.59,-76.69 -19.12,-18.54 -46.73,-27.8 -83,-27.8 -31.94,0 -57.37,7.69 -76.3,22.87 -18.73,15.18 -28.19,34.9 -28.19,59.14l-135.24 0.6 -0.6 -3.36c-2.56,-49.28 19.52,-93.05 66.24,-131.3 46.73,-38.05 107.65,-57.17 182.76,-57.17 72.75,0 131.51,18.53 176.26,55.6 44.55,36.86 67.03,90.09 67.03,159.29l0 277.98c0,25.64 1.58,50.48 5.12,74.13 3.56,23.66 9.07,46.93 16.77,69.6l-142.16 0zm-171.51 -100.55c35.09,0 66.63,-8.87 95.03,-26.61 28.38,-17.54 47.11,-37.86 56.38,-60.53l0 -92.46 -111.59 0c-40.81,0 -72.75,10.06 -95.81,30.36 -23.07,20.11 -34.71,43.96 -34.71,71.37 0,23.85 7.89,42.78 23.47,56.78 15.57,14.2 38.05,21.09 67.23,21.09zm588.1 100.55l-140.37 0 0 -900.98 140.37 0 0 900.98zm306.77 0l-140.37 0 0 -624.97 140.37 0 0 624.97zm0 -777.96l-140.37 0 0 -123.02 140.37 0 0 123.02zm131.1 474.15c0,-99.76 21.49,-180.2 64.08,-241.12 42.78,-61.11 102.91,-91.67 180.2,-91.67 33.9,0 64.26,6.9 91.08,20.5 26.81,13.8 49.88,33.32 69.59,58.76l0 -343.64 140.37 0 0 900.98 -113.75 0 -16.76 -79.06c-20.1,29.58 -44.36,52.25 -72.75,67.83 -28.59,15.57 -61.51,23.26 -98.77,23.45 -76.69,-0.19 -136.43,-27.99 -179.21,-83.78 -42.59,-55.8 -64.08,-129.34 -64.08,-220.02l0 -12.23zm140.37 12.23c0,57.56 11.05,103.7 33.32,138 22.08,34.31 57.18,51.26 105.28,51.26 29.78,0 54.81,-6.31 75.51,-18.93 20.51,-12.81 37.46,-30.95 50.47,-54.41l0 -272.47c-13.01,-23.26 -29.96,-41.2 -50.86,-54.02 -20.7,-13 -45.34,-19.51 -73.93,-19.51 -47.71,0 -83.01,20.3 -105.68,60.52 -22.67,40.22 -34.11,92.67 -34.11,157.33l0 12.23zm932.13 291.58c-4.92,-15.77 -9.06,-31.15 -12.41,-46.13 -3.16,-15.18 -5.52,-30.17 -6.51,-45.15 -18.92,29.18 -44.16,53.83 -75.71,73.74 -31.54,19.71 -66.83,29.57 -105.67,29.76 -65.25,-0.19 -115.14,-16.75 -150.03,-50.27 -34.7,-33.51 -52.25,-79.65 -52.25,-138.2 0,-60.33 23.86,-107.45 71.57,-141.16 47.91,-33.71 114.94,-50.47 201.69,-50.47l109.22 0 0 -55.01c0,-32.72 -9.66,-58.16 -28.59,-76.69 -19.13,-18.54 -46.73,-27.8 -83,-27.8 -31.94,0 -57.37,7.69 -76.3,22.87 -18.73,15.18 -28.19,34.9 -28.19,59.14l-135.24 0.6 -0.6 -3.36c-2.56,-49.28 19.52,-93.05 66.24,-131.3 46.73,-38.05 107.65,-57.17 182.76,-57.17 72.75,0 131.51,18.53 176.26,55.6 44.55,36.86 67.03,90.09 67.03,159.29l0 277.98c0,25.64 1.58,50.48 5.12,74.13 3.56,23.66 9.07,46.93 16.76,69.6l-142.15 0zm-171.51 -100.55c35.08,0 66.63,-8.87 95.03,-26.61 28.38,-17.54 47.11,-37.86 56.38,-60.53l0 -92.46 -111.59 0c-40.81,0 -72.75,10.06 -95.81,30.36 -23.07,20.11 -34.71,43.96 -34.71,71.37 0,23.85 7.89,42.78 23.47,56.78 15.57,14.2 38.05,21.09 67.23,21.09zm412.43 -203.26c0,-99.76 21.49,-180.2 64.08,-241.12 42.78,-61.11 102.91,-91.67 180.2,-91.67 33.9,0 64.26,6.9 91.08,20.5 26.81,13.8 49.88,33.32 69.59,58.76l0 -343.64 140.37 0 0 900.98 -113.75 0 -16.76 -79.06c-20.1,29.58 -44.36,52.25 -72.75,67.83 -28.59,15.57 -61.51,23.26 -98.77,23.45 -76.69,-0.19 -136.43,-27.99 -179.21,-83.78 -42.59,-55.8 -64.08,-129.34 -64.08,-220.02l0 -12.23zm140.37 12.23c0,57.56 11.05,103.7 33.32,138 22.08,34.31 57.18,51.26 105.28,51.26 29.78,0 54.81,-6.31 75.51,-18.93 20.51,-12.81 37.46,-30.95 50.47,-54.41l0 -272.47c-13.01,-23.26 -29.96,-41.2 -50.86,-54.02 -20.7,-13 -45.34,-19.51 -73.93,-19.51 -47.71,0 -83.01,20.3 -105.68,60.52 -22.67,40.22 -34.11,92.67 -34.11,157.33l0 12.23zm-5384.21 95.22l-298.1 0 -64.66 196.36 -144.91 0 293.36 -841.05 133.48 0 289.81 841.05 -144.91 0 -64.07 -196.36zm-259.26 -117.31l221.21 0 -108.05 -331.41 -3.54 0 -109.62 331.41z"/>
   <path class="fil8" d="M1520.49 8103.4c-577.95,0 -1053.5,438.31 -1112.45,1000.64l290.07 0c57.3,-402.93 403.62,-712.78 822.38,-712.78 418.75,0 765.09,309.85 822.38,712.78l290.06 0c-58.95,-562.33 -534.5,-1000.64 -1112.44,-1000.64zm-1115.77 1198.32c40.88,580.59 524.78,1038.93 1115.77,1038.93 590.99,0 1074.89,-458.34 1115.77,-1038.93l-288.84 0c-40.11,421.41 -395.01,751.06 -826.93,751.06 -431.93,0 -786.81,-329.65 -826.93,-751.06l-288.84 0z"/>
   <g style="clip-path:url(#id7)">
    <g>
     <path id="1" class="fil9 str1" d="M6361.82 6791.05c-583.62,0 -1056.74,473.11 -1056.74,1056.73 0,583.62 473.12,1056.74 1056.74,1056.74 583.62,0 1056.73,-473.12 1056.73,-1056.74 0,-583.62 -473.11,-1056.73 -1056.73,-1056.73z"/>
    </g>
   </g>
   <path class="fil0" d="M1520.49 8103.4c-577.95,0 -1053.5,438.31 -1112.45,1000.64l290.07 0c57.3,-402.93 403.62,-712.78 822.38,-712.78 418.75,0 765.09,309.85 822.38,712.78l290.06 0c-58.95,-562.33 -534.5,-1000.64 -1112.44,-1000.64zm-1115.77 1198.32c40.88,580.59 524.78,1038.93 1115.77,1038.93 590.99,0 1074.89,-458.34 1115.77,-1038.93l-288.84 0c-40.11,421.41 -395.01,751.06 -826.93,751.06 -431.93,0 -786.81,-329.65 -826.93,-751.06l-288.84 0z"/>
   <path class="fil8" d="M1541.33 8639.8c-281.14,0 -515.72,199.25 -570.26,464.24l1140.51 0c-54.53,-264.99 -289.12,-464.24 -570.25,-464.24zm-576.77 661.92c38.85,283.84 282.24,502.54 576.77,502.54 294.52,0 537.92,-218.7 576.77,-502.54l-1153.54 0z"/>
  </g>
 </g>
</svg>
